<svg width="798" height="200" viewBox="0 0 798 200" fill="none" xmlns="http://www.w3.org/2000/svg">
<path d="M42.3719 132.4V21.6H12.7719V159H110.772V132.4H42.3719ZM130.188 159H159.788V21.6H130.188V159ZM250.209 104.8H282.209V125.8C274.409 131.4 264.809 134.6 255.409 134.6C232.009 134.6 212.209 114.2 212.209 90.2C212.209 66.4 232.009 46 255.409 46C268.009 46 281.409 52 289.609 61.4L311.009 42.2C297.209 27.8 276.009 19.2 255.409 19.2C215.609 19.2 181.809 51.6 181.809 90.2C181.809 128.8 215.609 161.4 255.409 161.4C276.009 161.4 297.209 152.8 311.009 138.4V81.8H250.209V104.8ZM403.442 161.4C443.242 161.4 476.442 128.8 476.442 90.2C476.442 51.6 443.242 19.2 403.442 19.2C364.042 19.2 330.442 51.6 330.442 90.2C330.442 128.8 364.042 161.4 403.442 161.4ZM403.442 134.6C380.442 134.6 360.842 114.2 360.842 90.2C360.842 66.4 380.442 46 403.442 46C426.642 46 446.242 66.4 446.242 90.2C446.242 114.2 426.642 134.6 403.442 134.6ZM526.747 132.4V21.6H497.147V159H595.147V132.4H526.747ZM614.563 159H644.163V21.6H614.563V159ZM672.784 159H744.984C771.184 159 789.984 143.8 789.984 121.8C789.984 106.6 780.784 93.8 764.784 86.6C776.984 80.2 783.984 70 783.984 56C783.984 36 766.984 21.6 742.384 21.6H672.784V159ZM702.184 77V46.8H734.984C745.984 46.8 753.784 53.2 753.784 61.8C753.784 70.6 745.984 77 734.984 77H702.184ZM702.184 133.8V100.2H739.584C751.384 100.2 759.784 107.2 759.784 117C759.784 126.8 751.384 133.8 739.584 133.8H702.184Z" fill="white"/>
<mask id="mask0_1669_148" style="mask-type:alpha" maskUnits="userSpaceOnUse" x="328" y="17" width="150" height="149">
<path d="M402.899 166C444.045 166 477.399 132.645 477.399 91.5C477.399 50.3548 444.045 17 402.899 17C361.754 17 328.399 50.3548 328.399 91.5C328.399 132.645 361.754 166 402.899 166Z" fill="#C4C4C4"/>
</mask>
<g mask="url(#mask0_1669_148)">
<path d="M328.399 17.0001H402.752C443.978 17.0001 477.398 50.4204 477.398 91.6465V166H328.399V17.0001Z" fill="#3AA0FF"/>
<mask id="mask1_1669_148" style="mask-type:alpha" maskUnits="userSpaceOnUse" x="328" y="17" width="150" height="149">
<path d="M328.399 17.0001H402.752C443.978 17.0001 477.398 50.4204 477.398 91.6465V166H328.399V17.0001Z" fill="#C4C4C4"/>
</mask>
<g mask="url(#mask1_1669_148)">
<path d="M509.417 -15.112L247.839 246.469L363.941 362.571L625.519 100.991L509.417 -15.112Z" fill="#2888FF"/>
<path d="M380.778 113.621V17.0001H328.399V113.621V166H380.778H477.398V113.621H380.778Z" fill="#0E74FF"/>
</g>
<mask id="mask2_1669_148" style="mask-type:alpha" maskUnits="userSpaceOnUse" x="328" y="17" width="150" height="149">
<path d="M380.778 113.621V17.0001H328.399V113.621V166H380.778H477.398V113.621H380.778Z" fill="black"/>
</mask>
<g mask="url(#mask2_1669_148)">
<path d="M525.774 -31.8085L264.196 229.772L380.298 345.875L641.876 84.2941L525.774 -31.8085Z" fill="#0540FF"/>
</g>
<mask id="mask3_1669_148" style="mask-type:alpha" maskUnits="userSpaceOnUse" x="402" y="17" width="76" height="75">
<path d="M402.9 17.0002C444.045 17.0002 477.399 50.3554 477.399 91.5003H402.9V17.0002Z" fill="#AAA4A4"/>
</mask>
<g mask="url(#mask3_1669_148)">
<path d="M514.561 -20.1815H432.355V62.0255H514.561V-20.1815Z" fill="#B4DBFF"/>
</g>
</g>
</svg>
